<svg width="1819" height="1833" viewBox="0 0 1819 1833" fill="none" xmlns="http://www.w3.org/2000/svg">
<path d="M909.199 0C407.905 0 0 407.905 0 909.199C0 1090.84 52.4014 1263.47 152.222 1412.68L101.779 1653.76C90.4829 1707.34 109.774 1762.81 151.828 1797.93C178.954 1820.64 212.787 1832.49 246.957 1832.49C265.747 1832.49 284.648 1828.91 302.658 1821.64L523.22 1732.34C643.624 1788.82 775.656 1818.4 909.203 1818.4C1410.55 1818.4 1818.4 1410.55 1818.4 909.203C1818.4 407.905 1410.55 0 909.199 0ZM909.199 1670.03C771.404 1670.03 642.332 1633.24 530.879 1569.2L246.957 1684.13L310.876 1378.84C209.151 1249.55 148.364 1086.53 148.364 909.196C148.364 488.989 488.993 148.36 909.199 148.36C1329.41 148.36 1670.09 488.989 1670.09 909.196C1670.09 1329.4 1329.41 1670.03 909.199 1670.03Z" fill="black"/>
<path fill-rule="evenodd" clip-rule="evenodd" d="M910.639 280.643C559.98 279.437 274.738 562.725 273.532 913.384C272.327 1264.04 555.614 1549.28 906.273 1550.49C1256.93 1551.7 1542.17 1268.4 1543.38 917.749C1544.59 567.09 1261.29 281.848 910.639 280.643ZM1203.9 677.327C1230.76 699.869 1234.26 739.917 1211.72 766.778L892.944 1146.64C881.819 1159.9 865.752 1168.05 848.478 1169.18C831.198 1170.32 814.209 1164.35 801.436 1152.66L611.556 978.845C585.691 955.169 583.917 915.003 607.594 889.141C631.27 863.273 671.433 861.5 697.298 885.176L838.287 1014.23L1114.45 685.149C1136.99 658.288 1177.03 654.786 1203.9 677.327Z" fill="black"/>
</svg>
