<svg width="88" height="88" viewBox="0 0 88 88" fill="none" xmlns="http://www.w3.org/2000/svg">
<path fill-rule="evenodd" clip-rule="evenodd" d="M76.559 18.902C77.4731 18.902 78.2113 19.6441 78.2113 20.5543C78.2113 21.4722 77.4691 22.2145 76.559 22.2145C75.6449 22.2145 74.9067 21.4723 74.9067 20.5543C74.9067 19.6402 75.6489 18.902 76.559 18.902ZM87.95 44.949C87.3836 68.754 67.911 87.898 44.009 87.898C19.747 87.898 0.052002 68.171 0.052002 43.878C0.052002 21.136 17.306 2.39795 39.415 0.100952C39.3642 0.589232 39.3369 1.08533 39.3369 1.58925C39.3369 8.46035 44.165 14.2063 50.6029 15.6163C49.724 17.4796 49.2318 19.5577 49.2318 21.753C49.2318 29.6788 55.6615 36.112 63.5718 36.112C66.5835 36.112 69.3804 35.1823 71.689 33.5925C73.0054 40.1628 78.8062 45.1195 85.751 45.1195C86.501 45.1195 87.2354 45.0609 87.9502 44.9476L87.95 44.949ZM13.673 40.0506C11.6574 40.0506 10.0207 41.6873 10.0207 43.7108C10.0207 45.7264 11.6574 47.3631 13.673 47.3631C15.6925 47.3631 17.3332 45.7264 17.3332 43.7108C17.3332 41.6913 15.6965 40.0506 13.673 40.0506ZM29.896 66.4526C27.8804 66.4526 26.2437 68.0932 26.2437 70.1128C26.2437 72.1284 27.8804 73.773 29.896 73.773C31.9116 73.773 33.5562 72.1324 33.5562 70.1128C33.5562 68.0972 31.9156 66.4526 29.896 66.4526ZM69.732 62.7534C67.7164 62.7534 66.0718 64.3901 66.0718 66.4136C66.0718 68.4292 67.7124 70.0659 69.732 70.0659C71.7476 70.0659 73.3922 68.4292 73.3922 66.4136C73.3922 64.3941 71.7516 62.7534 69.732 62.7534ZM28.259 50.3083C27.3449 50.3083 26.6067 51.0505 26.6067 51.9607C26.6067 52.8747 27.3489 53.613 28.259 53.613C29.177 53.613 29.9192 52.8708 29.9192 51.9607C29.9192 51.0466 29.177 50.3083 28.259 50.3083ZM36.091 31.2104C35.1769 31.2104 34.4387 31.9525 34.4387 32.8706C34.4387 33.7846 35.1809 34.5229 36.091 34.5229C37.009 34.5229 37.7512 33.7807 37.7512 32.8706C37.7512 31.9526 37.009 31.2104 36.091 31.2104ZM49.333 69.0114C48.4189 69.0114 47.6807 69.7535 47.6807 70.6716C47.6807 71.5856 48.4229 72.3239 49.333 72.3239C50.2471 72.3239 50.9853 71.5817 50.9853 70.6716C50.9853 69.7536 50.2431 69.0114 49.333 69.0114ZM69.868 47.6094C68.9539 47.6094 68.2078 48.3515 68.2078 49.2696C68.2078 50.1836 68.9539 50.9219 69.868 50.9219C70.7821 50.9219 71.5203 50.1797 71.5203 49.2696C71.5203 48.3516 70.7781 47.6094 69.868 47.6094ZM29.098 16.5504C27.0785 16.5504 25.4378 18.1871 25.4378 20.2106C25.4378 22.2262 27.0745 23.8629 29.098 23.8629C31.1136 23.8629 32.7503 22.2262 32.7503 20.2106C32.7503 18.1911 31.1136 16.5504 29.098 16.5504ZM49.168 44.9454C47.1524 44.9454 45.5078 46.5821 45.5078 48.6056C45.5078 50.6212 47.1484 52.2579 49.168 52.2579C51.1836 52.2579 52.8282 50.6212 52.8282 48.6056C52.8282 46.5861 51.1876 44.9454 49.168 44.9454ZM65.219 2.96135C67.9495 2.96135 70.1604 5.17225 70.1604 7.90275C70.1604 10.6294 67.9495 12.8403 65.219 12.8403C62.4924 12.8403 60.2815 10.6294 60.2815 7.90275C60.2815 5.17225 62.4924 2.96135 65.219 2.96135ZM82.231 6.82855C83.4341 6.82855 84.4107 7.80511 84.4107 9.00435C84.4107 10.2036 83.4341 11.1802 82.231 11.1802C81.0318 11.1802 80.0552 10.2036 80.0552 9.00435C80.0552 7.80515 81.0318 6.82855 82.231 6.82855Z" fill="black"/>
</svg>
