<svg width="11698" height="1833" viewBox="0 0 11698 1833" fill="none" xmlns="http://www.w3.org/2000/svg">
<path d="M909.199 0C407.905 0 0 407.905 0 909.199C0 1090.84 52.4014 1263.47 152.222 1412.68L101.779 1653.76C90.4829 1707.34 109.774 1762.81 151.828 1797.93C178.954 1820.64 212.787 1832.49 246.957 1832.49C265.747 1832.49 284.648 1828.91 302.658 1821.64L523.22 1732.34C643.624 1788.82 775.656 1818.4 909.203 1818.4C1410.55 1818.4 1818.4 1410.55 1818.4 909.203C1818.4 407.905 1410.55 0 909.199 0ZM909.199 1670.03C771.404 1670.03 642.332 1633.24 530.879 1569.2L246.957 1684.13L310.876 1378.84C209.151 1249.55 148.364 1086.53 148.364 909.196C148.364 488.989 488.993 148.36 909.199 148.36C1329.41 148.36 1670.09 488.989 1670.09 909.196C1670.09 1329.4 1329.41 1670.03 909.199 1670.03Z" fill="white"/>
<path fill-rule="evenodd" clip-rule="evenodd" d="M910.639 280.643C559.98 279.437 274.738 562.725 273.532 913.384C272.327 1264.04 555.614 1549.28 906.273 1550.49C1256.93 1551.7 1542.17 1268.4 1543.38 917.749C1544.59 567.09 1261.29 281.848 910.639 280.643ZM1203.9 677.327C1230.76 699.869 1234.26 739.917 1211.72 766.778L892.944 1146.64C881.819 1159.9 865.752 1168.05 848.478 1169.18C831.198 1170.32 814.209 1164.35 801.436 1152.66L611.556 978.845C585.691 955.169 583.917 915.003 607.594 889.141C631.27 863.273 671.433 861.5 697.298 885.176L838.287 1014.23L1114.45 685.149C1136.99 658.288 1177.03 654.786 1203.9 677.327Z" fill="white"/>
<path d="M2332.15 1207.49V389.365H2466.95V1218.34C2466.95 1385.68 2378.63 1474 2211.29 1474H2070.29V1350.04H2194.24C2291.86 1350.04 2332.15 1305.11 2332.15 1207.49ZM3022.61 1483.3C2791.74 1483.3 2630.59 1319.05 2630.59 1078.88C2630.59 838.714 2791.74 674.469 3022.61 674.469C3253.48 674.469 3414.63 838.714 3414.63 1078.88C3414.63 1319.05 3253.48 1483.3 3022.61 1483.3ZM3022.61 1370.18C3179.11 1370.18 3284.47 1247.78 3284.47 1078.88C3284.47 909.99 3179.11 787.581 3022.61 787.581C2866.11 787.581 2760.75 909.99 2760.75 1078.88C2760.75 1247.78 2866.11 1370.18 3022.61 1370.18ZM3958.54 674.469C4177.02 674.469 4338.17 821.669 4338.17 1078.88C4338.17 1320.6 4177.02 1483.3 3958.54 1483.3C3825.29 1483.3 3735.42 1429.07 3687.39 1353.14L3670.34 1474H3560.33V389.365H3687.39V810.823C3740.07 737.998 3825.29 674.469 3958.54 674.469ZM3946.15 1370.18C4102.65 1370.18 4208.01 1250.88 4208.01 1078.88C4208.01 906.891 4102.65 787.581 3946.15 787.581C3791.2 787.581 3685.84 906.891 3685.84 1075.78C3685.84 1249.33 3791.2 1370.18 3946.15 1370.18ZM4501.95 1474V389.365H4918.76C5135.69 389.365 5278.24 519.521 5278.24 722.503C5278.24 925.485 5135.69 1057.19 4918.76 1057.19H4636.76V1474H4501.95ZM4907.91 513.323H4636.76V933.232H4906.36C5048.92 933.232 5140.34 851.11 5140.34 722.503C5140.34 593.896 5050.47 513.323 4907.91 513.323ZM5726.63 1483.3C5495.76 1483.3 5334.61 1319.05 5334.61 1078.88C5334.61 838.714 5495.76 674.469 5726.63 674.469C5957.5 674.469 6118.65 838.714 6118.65 1078.88C6118.65 1319.05 5957.5 1483.3 5726.63 1483.3ZM5726.63 1370.18C5883.13 1370.18 5988.49 1247.78 5988.49 1078.88C5988.49 909.99 5883.13 787.581 5726.63 787.581C5570.14 787.581 5464.77 909.99 5464.77 1078.88C5464.77 1247.78 5570.14 1370.18 5726.63 1370.18ZM6228.78 1213.69H6358.94C6363.59 1306.66 6445.71 1374.83 6577.42 1374.83C6688.98 1374.83 6768 1326.8 6768 1253.97C6768 1154.81 6681.23 1147.06 6563.47 1133.11C6386.83 1111.42 6245.83 1075.78 6245.83 911.539C6245.83 767.438 6377.53 672.92 6555.72 674.469C6735.46 676.018 6865.62 759.69 6878.02 923.935H6747.86C6738.56 843.362 6664.19 782.933 6555.72 782.933C6445.71 782.933 6371.34 829.417 6371.34 902.242C6371.34 989.013 6455.01 999.859 6569.67 1013.8C6749.41 1035.5 6893.51 1069.59 6893.51 1244.68C6893.51 1391.88 6752.51 1483.3 6577.42 1483.3C6372.89 1483.3 6231.88 1387.23 6228.78 1213.69ZM7093.43 1267.92V799.977H6950.88V683.766H7093.43V462.19H7220.49V683.766H7425.02V799.977H7220.49V1266.37C7220.49 1333 7243.73 1357.79 7311.91 1357.79H7437.41V1474H7299.51C7147.66 1474 7093.43 1407.37 7093.43 1267.92ZM7510.32 1117.62L7738.1 1120.72C7745.85 1226.08 7829.52 1298.91 7962.77 1298.91C8069.69 1298.91 8148.71 1252.42 8148.71 1167.2C8148.71 1075.78 8060.39 1057.19 7879.1 1021.55C7696.26 987.464 7535.12 928.583 7535.12 708.558C7535.12 516.422 7694.71 380.068 7939.53 380.068C8195.19 380.068 8357.89 513.323 8360.99 720.953H8133.21C8122.37 629.534 8052.64 566.005 7939.53 566.005C7840.36 566.005 7769.09 607.841 7769.09 691.513C7769.09 779.834 7854.31 798.427 8034.05 832.516C8219.99 866.604 8384.23 922.386 8382.68 1140.86C8381.13 1343.84 8213.79 1483.3 7959.67 1483.3C7683.87 1483.3 7511.87 1337.65 7510.32 1117.62ZM8880.06 1483.3C8627.5 1483.3 8474.1 1326.8 8474.1 1075.78C8474.1 829.417 8635.25 668.271 8887.81 668.271C9104.74 668.271 9239.54 786.031 9270.53 975.068H9042.76C9024.16 896.044 8969.93 846.461 8884.71 846.461C8770.05 846.461 8697.22 940.979 8697.22 1075.78C8697.22 1212.14 8770.05 1305.11 8884.71 1305.11C8969.93 1305.11 9027.26 1253.97 9042.76 1173.4H9272.08C9241.09 1363.99 9096.99 1483.3 8880.06 1483.3ZM9776.18 1483.3C9522.07 1483.3 9356.27 1320.6 9356.27 1075.78C9356.27 830.966 9522.07 668.271 9776.18 668.271C10030.3 668.271 10196.1 830.966 10196.1 1075.78C10196.1 1322.15 10030.3 1483.3 9776.18 1483.3ZM9776.18 1305.11C9898.59 1305.11 9974.52 1210.59 9974.52 1075.78C9974.52 940.979 9898.59 846.461 9776.18 846.461C9653.77 846.461 9579.4 940.979 9579.4 1075.78C9579.4 1210.59 9653.77 1305.11 9776.18 1305.11ZM10764.1 677.568H10801.3V875.901H10714.6C10584.4 875.901 10534.8 962.672 10534.8 1083.53V1474H10316.3V677.568H10514.7L10534.8 796.878C10578.2 725.602 10640.2 677.568 10764.1 677.568ZM11266.8 1483.3C11001.8 1483.3 10842.2 1323.7 10842.2 1077.33C10842.2 829.417 11004.9 668.271 11251.3 668.271C11489.9 668.271 11651 817.021 11654.1 1050.99C11654.1 1074.23 11652.6 1100.58 11647.9 1125.37H11070V1136.21C11074.6 1249.33 11147.4 1317.5 11257.5 1317.5C11345.8 1317.5 11407.8 1278.77 11426.4 1204.39H11641.7C11616.9 1359.34 11479 1483.3 11266.8 1483.3ZM11074.6 982.815H11434.1C11418.6 885.198 11352 830.966 11252.8 830.966C11158.3 830.966 11087 888.297 11074.6 982.815Z" fill="white"/>
</svg>
