<svg xmlns="http://www.w3.org/2000/svg" version="1.1" viewBox="-5.0 -10.0 110.0 135.0">
 <path d="m82.559 24.902c0.91406 0 1.6523 0.74219 1.6523 1.6523 0 0.91797-0.74219 1.6602-1.6523 1.6602-0.91406 0-1.6523-0.74219-1.6523-1.6602 0-0.91406 0.74219-1.6523 1.6523-1.6523zm11.391 26.047c-0.56641 23.805-20.039 42.949-43.941 42.949-24.262 0-43.957-19.727-43.957-44.02 0-22.742 17.254-41.48 39.363-43.777-0.050781 0.48828-0.078124 0.98438-0.078124 1.4883 0 6.8711 4.8281 12.617 11.266 14.027-0.87891 1.8633-1.3711 3.9414-1.3711 6.1367 0 7.9258 6.4297 14.359 14.34 14.359 3.0117 0 5.8086-0.92969 8.1172-2.5195 1.3164 6.5703 7.1172 11.527 14.062 11.527 0.75 0 1.4844-0.058594 2.1992-0.17188zm-74.277-4.8984c-2.0156 0-3.6523 1.6367-3.6523 3.6602 0 2.0156 1.6367 3.6523 3.6523 3.6523 2.0195 0 3.6602-1.6367 3.6602-3.6523 0-2.0195-1.6367-3.6602-3.6602-3.6602zm16.223 26.402c-2.0156 0-3.6523 1.6406-3.6523 3.6602 0 2.0156 1.6367 3.6602 3.6523 3.6602s3.6602-1.6406 3.6602-3.6602c0-2.0156-1.6406-3.6602-3.6602-3.6602zm39.836-3.6992c-2.0156 0-3.6602 1.6367-3.6602 3.6602 0 2.0156 1.6406 3.6523 3.6602 3.6523 2.0156 0 3.6602-1.6367 3.6602-3.6523 0-2.0195-1.6406-3.6602-3.6602-3.6602zm-41.473-12.445c-0.91406 0-1.6523 0.74219-1.6523 1.6523 0 0.91406 0.74219 1.6523 1.6523 1.6523 0.91797 0 1.6602-0.74219 1.6602-1.6523 0-0.91406-0.74219-1.6523-1.6602-1.6523zm7.832-19.098c-0.91406 0-1.6523 0.74219-1.6523 1.6602 0 0.91406 0.74219 1.6523 1.6523 1.6523 0.91797 0 1.6602-0.74219 1.6602-1.6523 0-0.91797-0.74219-1.6602-1.6602-1.6602zm13.242 37.801c-0.91406 0-1.6523 0.74219-1.6523 1.6602 0 0.91406 0.74219 1.6523 1.6523 1.6523 0.91406 0 1.6523-0.74219 1.6523-1.6523 0-0.91797-0.74219-1.6602-1.6523-1.6602zm20.535-21.402c-0.91406 0-1.6602 0.74219-1.6602 1.6602 0 0.91406 0.74609 1.6523 1.6602 1.6523 0.91406 0 1.6523-0.74219 1.6523-1.6523 0-0.91797-0.74219-1.6602-1.6523-1.6602zm-40.77-31.059c-2.0195 0-3.6602 1.6367-3.6602 3.6602 0 2.0156 1.6367 3.6523 3.6602 3.6523 2.0156 0 3.6523-1.6367 3.6523-3.6523 0-2.0195-1.6367-3.6602-3.6523-3.6602zm20.07 28.395c-2.0156 0-3.6602 1.6367-3.6602 3.6602 0 2.0156 1.6406 3.6523 3.6602 3.6523 2.0156 0 3.6602-1.6367 3.6602-3.6523 0-2.0195-1.6406-3.6602-3.6602-3.6602zm16.051-41.984c2.7305 0 4.9414 2.2109 4.9414 4.9414 0 2.7266-2.2109 4.9375-4.9414 4.9375-2.7266 0-4.9375-2.2109-4.9375-4.9375 0-2.7305 2.2109-4.9414 4.9375-4.9414zm17.012 3.8672c1.2031 0 2.1797 0.97656 2.1797 2.1758 0 1.1992-0.97656 2.1758-2.1797 2.1758-1.1992 0-2.1758-0.97656-2.1758-2.1758 0-1.1992 0.97656-2.1758 2.1758-2.1758z" fill-rule="evenodd"/>
<text x="0.0" y="117.5" font-size="5.0" font-weight="bold" font-family="Arbeit Regular, Helvetica, Arial-Unicode, Arial, Sans-serif" fill="#000000">Created by Starin Sani</text><text x="0.0" y="122.5" font-size="5.0" font-weight="bold" font-family="Arbeit Regular, Helvetica, Arial-Unicode, Arial, Sans-serif" fill="#000000">from Noun Project</text></svg>