<svg width="69" height="90" viewBox="0 0 69 90" fill="none" xmlns="http://www.w3.org/2000/svg">
<path d="M60.84 36.64H18.98V24.33C18.97 15.86 25.86 8.97001 34.32 8.96001C42.79 8.96001 49.68 15.85 49.69 24.31C49.7 25.2 50.06 26.02 50.65 26.6C51.24 27.19 52.04 27.55 52.94 27.55H55.41C57.21 27.55 58.66 26.1 58.66 24.31H58.65C58.64 10.9 47.73 -0.00999313 34.32 6.86894e-06C20.91 0.0100069 10.01 10.92 10.01 24.33L10.02 36.64H9.22002H8.34002C3.73002 36.64 -0.00997999 40.39 2.00068e-05 45V81.65C2.00068e-05 86.26 3.75002 90 8.36002 90L60.34 89.97C64.95 89.97 68.69 86.23 68.68 81.62V44.96C68.68 40.53 65.21 36.91 60.84 36.64Z" fill="black"/>
</svg>
